<?xml version="1.0" encoding="UTF-8"?>
<!DOCTYPE svg PUBLIC "-//W3C//DTD SVG 1.1//EN" "http://www.w3.org/Graphics/SVG/1.1/DTD/svg11.dtd">
<!-- Creator: CorelDRAW -->
<svg xmlns="http://www.w3.org/2000/svg" xml:space="preserve" width="2048px" height="2048px" style="shape-rendering:geometricPrecision; text-rendering:geometricPrecision; image-rendering:optimizeQuality; fill-rule:evenodd; clip-rule:evenodd"
viewBox="0 0 2048 2048"
 xmlns:xlink="http://www.w3.org/1999/xlink">
 <defs>
  <style type="text/css">
   <![CDATA[
    .fil2 {fill:none}
    .fil1 {fill:#1E88E5}
    .fil0 {fill:#42A5F5}
    .fil4 {fill:#C00806}
    .fil3 {fill:#D50000}
   ]]>
  </style>
   <clipPath id="id0">
    <path d="M1024 -0.0011811c565.541,0 1024,458.461 1024,1024 0,565.541 -458.461,1024 -1024,1024 -565.541,0 -1024,-458.461 -1024,-1024 0,-565.541 458.461,-1024 1024,-1024z"/>
   </clipPath>
 </defs>
 <g id="Layer_x0020_1">
  <metadata id="CorelCorpID_0Corel-Layer"/>
  <path class="fil0" d="M1024 -0.0011811c565.541,0 1024,458.461 1024,1024 0,565.541 -458.461,1024 -1024,1024 -565.541,0 -1024,-458.461 -1024,-1024 0,-565.541 458.461,-1024 1024,-1024z"/>
  <g style="clip-path:url(#id0)">
   <g id="_466411336">
    <g>
     <polygon id="_4608916321" class="fil1" points="1094,463.999 2229.88,1599.88 2229.88,2089.88 1094,954.001 "/>
     <polygon id="_460891608" class="fil1" points="1584,954.001 2719.88,2089.88 2719.88,2159.88 1584,1024 "/>
     <polygon id="_460889088" class="fil1" points="1584,1024 2719.88,2159.88 2719.88,2229.88 1584,1094 "/>
     <polygon id="_460888968" class="fil1" points="1584,1094 2719.88,2229.88 2229.88,2229.88 1094,1094 "/>
     <polygon id="_460888752" class="fil1" points="954,1094 2089.88,2229.88 1599.88,2229.88 463.999,1094 "/>
     <polygon id="_460888536" class="fil1" points="1094,1584 2229.88,2719.88 2159.88,2719.88 1024,1584 "/>
     <polygon id="_460888320" class="fil1" points="1024,1584 2159.88,2719.88 2089.88,2719.88 954,1584 "/>
     <polygon id="_460888104" class="fil1" points="1094,1094 2229.88,2229.88 2229.88,2719.88 1094,1584 "/>
    </g>
    <polygon id="_466411120" class="fil1" points="1094,463.999 1094,954.001 1584,954.001 1584,1024 1584,1094 1094,1094 1094,1584 1024,1584 954,1584 954,1094 463.999,1094 463.999,1024 463.999,954.001 954,954 954,463.999 1024,463.999 "/>
   </g>
  </g>
  <path class="fil2" d="M1024 -0.0011811c565.541,0 1024,458.461 1024,1024 0,565.541 -458.461,1024 -1024,1024 -565.541,0 -1024,-458.461 -1024,-1024 0,-565.541 458.461,-1024 1024,-1024z"/>
  <rect class="fil3" transform="matrix(1.01641E-014 -0.364582 0.853659 2.14781E-014 463.999 1094)" width="384" height="1312"/>
  <rect class="fil3" x="954" y="463.999" width="139.999" height="1120"/>
  <path class="fil4" d="M954 463.999l70.0004 0 0 560.001 -70.0004 -70.0004 0 -490.001zm70.0004 560.001l0 560.001 -70.0004 0 0 -490.001 70.0004 -70.0004z"/>
  <path class="fil4" d="M463.999 1094l0 -70.0004 558.362 0 -68.3611 70.0004 -490.001 0zm560.001 -70.0004l560.001 0 0 70.0004 -490.002 0 -69.9993 -70.0004z"/>
 </g>
</svg>
