<?xml version="1.0" encoding="utf-8"?>
<!-- Generator: Adobe Illustrator 22.0.0, SVG Export Plug-In . SVG Version: 6.00 Build 0)  -->
<svg version="1.1" xmlns="http://www.w3.org/2000/svg" xmlns:xlink="http://www.w3.org/1999/xlink" x="0px" y="0px"
	 viewBox="0 0 256 256" style="enable-background:new 0 0 256 256;" xml:space="preserve">
<style type="text/css">
	.st0{display:none;}
	.st1{display:inline;}
	.st2{fill:none;stroke:#6B1D1D;stroke-width:0.5;stroke-miterlimit:10;}
	.st3{fill:#3A312A;}
	.st4{fill:#87796F;}
	.st5{fill:#D5DE58;}
	.st6{fill:#695B51;}
	.st7{fill:#FCE8CB;}
	.st8{fill:#F16C7A;}
	.st9{fill:#8AC6DD;}
	.st10{fill:#DECAAD;}
	.st11{fill:#D6DF58;}
	.st12{fill-rule:evenodd;clip-rule:evenodd;fill:#FCE8CB;}
	.st13{fill:#F5978A;}
	.st14{fill:#D7E057;}
	.st15{fill-rule:evenodd;clip-rule:evenodd;fill:#87796F;}
	.st16{fill:#6CA8BF;}
	.st17{fill:#B9C239;}
	.st18{fill:#D34E5C;}
	.st19{fill:#FAE6CA;}
	.st20{fill:#F8E4C8;}
	.st21{fill:#8AC5DC;}
	.st22{fill:#EF6D7A;}
	.st23{fill:#EB6E7A;}
	.st24{fill:#89C4DB;}
	.st25{fill-rule:evenodd;clip-rule:evenodd;fill:#F16C7A;}
	.st26{fill:#F7E3C7;}
	.st27{fill:#F6E2C6;}
	.st28{fill:#ED6E7A;}
	.st29{fill:#8AC3DA;}
	.st30{fill:#D5DC57;}
	.st31{fill-rule:evenodd;clip-rule:evenodd;fill:#D7E057;}
	.st32{fill-rule:evenodd;clip-rule:evenodd;fill:#F8E4C8;}
	.st33{fill:#D4DB56;}
	.st34{fill:#F59689;}
	.st35{fill:#DDC9AC;}
	.st36{fill:#D24E5C;}
	.st37{fill:#6A5C52;}
	.st38{fill:#6CA6BE;}
	.st39{fill:#B8C136;}
	.st40{fill-rule:evenodd;clip-rule:evenodd;fill:#FAE6CA;}
</style>
<g id="Layer_2" class="st0">
	<g class="st1">
		<g>
			<line class="st2" x1="0" y1="4.829" x2="256" y2="4.829"/>
			<line class="st2" x1="0" y1="16.56" x2="256" y2="16.56"/>
			<line class="st2" x1="0" y1="28.29" x2="256" y2="28.29"/>
			<line class="st2" x1="0" y1="40.021" x2="256" y2="40.021"/>
			<line class="st2" x1="0" y1="51.751" x2="256" y2="51.751"/>
			<line class="st2" x1="0" y1="63.482" x2="256" y2="63.482"/>
			<line class="st2" x1="0" y1="75.213" x2="256" y2="75.213"/>
			<line class="st2" x1="0" y1="86.943" x2="256" y2="86.943"/>
			<line class="st2" x1="0" y1="98.674" x2="256" y2="98.674"/>
			<line class="st2" x1="0" y1="110.404" x2="256" y2="110.404"/>
			<line class="st2" x1="0" y1="122.135" x2="256" y2="122.135"/>
			<line class="st2" x1="0" y1="133.865" x2="256" y2="133.865"/>
			<line class="st2" x1="0" y1="145.596" x2="256" y2="145.596"/>
			<line class="st2" x1="0" y1="157.326" x2="256" y2="157.326"/>
			<line class="st2" x1="0" y1="169.057" x2="256" y2="169.057"/>
			<line class="st2" x1="0" y1="180.788" x2="256" y2="180.788"/>
			<line class="st2" x1="0" y1="192.518" x2="256" y2="192.518"/>
			<line class="st2" x1="0" y1="204.249" x2="256" y2="204.249"/>
			<line class="st2" x1="0" y1="215.979" x2="256" y2="215.979"/>
			<line class="st2" x1="0" y1="227.71" x2="256" y2="227.71"/>
			<line class="st2" x1="0" y1="239.44" x2="256" y2="239.44"/>
			<line class="st2" x1="0" y1="251.171" x2="256" y2="251.171"/>
		</g>
		<g>
			<line class="st2" x1="251.171" y1="0" x2="251.171" y2="256"/>
			<line class="st2" x1="239.44" y1="0" x2="239.44" y2="256"/>
			<line class="st2" x1="227.71" y1="0" x2="227.71" y2="256"/>
			<line class="st2" x1="215.979" y1="0" x2="215.979" y2="256"/>
			<line class="st2" x1="204.249" y1="0" x2="204.249" y2="256"/>
			<line class="st2" x1="192.518" y1="0" x2="192.518" y2="256"/>
			<line class="st2" x1="180.788" y1="0" x2="180.788" y2="256"/>
			<line class="st2" x1="169.057" y1="0" x2="169.057" y2="256"/>
			<line class="st2" x1="157.326" y1="0" x2="157.326" y2="256"/>
			<line class="st2" x1="145.596" y1="0" x2="145.596" y2="256"/>
			<line class="st2" x1="133.865" y1="0" x2="133.865" y2="256"/>
			<line class="st2" x1="122.135" y1="0" x2="122.135" y2="256"/>
			<line class="st2" x1="110.404" y1="0" x2="110.404" y2="256"/>
			<line class="st2" x1="98.674" y1="0" x2="98.674" y2="256"/>
			<line class="st2" x1="86.943" y1="0" x2="86.943" y2="256"/>
			<line class="st2" x1="75.213" y1="0" x2="75.213" y2="256"/>
			<line class="st2" x1="63.482" y1="0" x2="63.482" y2="256"/>
			<line class="st2" x1="51.751" y1="0" x2="51.751" y2="256"/>
			<line class="st2" x1="40.021" y1="0" x2="40.021" y2="256"/>
			<line class="st2" x1="28.29" y1="0" x2="28.29" y2="256"/>
			<line class="st2" x1="16.56" y1="0" x2="16.56" y2="256"/>
			<line class="st2" x1="4.829" y1="0" x2="4.829" y2="256"/>
		</g>
	</g>
</g>
<g id="Layer_1">
	<g>
		<path class="st8" d="M61.616,16.372L37.168,16.36C25.755,16.354,16.5,25.604,16.5,37.017v158.966
			c0,11.408,9.249,20.657,20.657,20.657h119.186c11.408,0,20.657-9.249,20.657-20.657V68.485l-0.304-31.604
			c-0.109-11.327-9.318-20.453-20.645-20.459l-81.666-0.042L61.616,16.372z"/>
		<path class="st3" d="M156.343,218.14H37.157C24.94,218.14,15,208.2,15,195.983V37.018c0-5.921,2.306-11.486,6.493-15.672
			c4.185-4.183,9.748-6.486,15.664-6.486c0.004,0,0.008,0,0.012,0l24.448,0.013c0.828,0,1.499,0.672,1.499,1.501
			c0,0.828-0.672,1.499-1.5,1.499c0,0,0,0-0.001,0l-24.448-0.013c-0.003,0-0.007,0-0.01,0c-5.115,0-9.925,1.991-13.543,5.607
			C19.994,27.086,18,31.898,18,37.018v158.966c0,10.562,8.594,19.156,19.157,19.156h119.186c10.563,0,19.157-8.594,19.157-19.156
			V68.484l-0.304-31.589c-0.1-10.457-8.689-18.968-19.146-18.974L74.384,17.88c-0.828,0-1.499-0.672-1.499-1.501
			c0-0.828,0.672-1.499,1.5-1.499c0,0,0,0,0.001,0l81.666,0.042c12.095,0.006,22.028,9.851,22.145,21.944L178.5,68.47v127.514
			C178.5,208.2,168.561,218.14,156.343,218.14z"/>
		<path class="st26" d="M39.5,127.291v91.495c0,11.526,9.329,20.854,20.854,20.854h118.792c11.525,0,20.854-9.328,20.854-20.854
			V91.485l-52.135-52.136h-87.51c-11.525,0-20.854,9.329-20.854,20.855v53.871V127.291z"/>
		<path class="st3" d="M179.145,241.14H60.354C48.028,241.14,38,231.112,38,218.786v-91.495c0-0.828,0.672-1.5,1.5-1.5
			s1.5,0.672,1.5,1.5v91.495c0,10.672,8.683,19.354,19.354,19.354h118.791c10.672,0,19.355-8.682,19.355-19.354V92.105
			l-51.257-51.257H60.354C49.683,40.849,41,49.531,41,60.203v53.871c0,0.828-0.672,1.5-1.5,1.5s-1.5-0.672-1.5-1.5V60.203
			c0-12.326,10.028-22.354,22.354-22.354h87.51c0.397,0,0.779,0.158,1.061,0.44l52.136,52.136c0.281,0.281,0.439,0.663,0.439,1.061
			v127.302C201.5,231.112,191.472,241.14,179.145,241.14z"/>
		<path class="st3" d="M170.506,156.206H68.993c-0.828,0-1.5-0.672-1.5-1.5c0-0.828,0.672-1.5,1.5-1.5h101.513
			c0.828,0,1.5,0.672,1.5,1.5C172.006,155.534,171.334,156.206,170.506,156.206z"/>
		<path class="st3" d="M170.506,181.093H68.993c-0.828,0-1.5-0.672-1.5-1.5c0-0.828,0.672-1.5,1.5-1.5h101.513
			c0.828,0,1.5,0.672,1.5,1.5C172.006,180.421,171.334,181.093,170.506,181.093z"/>
		<path class="st3" d="M170.506,205.979H68.993c-0.828,0-1.5-0.672-1.5-1.5s0.672-1.5,1.5-1.5h101.513c0.828,0,1.5,0.672,1.5,1.5
			S171.334,205.979,170.506,205.979z"/>
		<path class="st26" d="M200,91.485v0.129h-33.668c-10.14,0-18.36-8.22-18.36-18.36V39.457L200,91.485z"/>
		<path class="st3" d="M200,93.114h-33.668c-10.951,0-19.86-8.909-19.86-19.86V39.457c0-0.606,0.365-1.153,0.926-1.386
			c0.56-0.231,1.205-0.104,1.635,0.325l52.028,52.028c0.281,0.281,0.439,0.663,0.439,1.061v0.129
			C201.5,92.442,200.828,93.114,200,93.114z M149.472,43.078v30.176c0,9.297,7.564,16.86,16.86,16.86h30.176L149.472,43.078z"/>
		<path class="st14" d="M226.278,26.131c0,0,3.408,12.659,13.222,13.246c0,0-13.1,4.525-13.321,14.202
			c0,0-2.579-13.572-12.925-14.059C213.254,39.521,225.304,37.695,226.278,26.131z"/>
		<path class="st3" d="M226.178,55.079c-0.713,0-1.335-0.506-1.473-1.218c-0.023-0.124-2.494-12.417-11.521-12.843
			c-0.77-0.036-1.388-0.65-1.428-1.421c-0.04-0.77,0.511-1.444,1.273-1.561c0.441-0.068,10.895-1.816,11.754-12.032
			c0.061-0.726,0.635-1.301,1.359-1.367c0.74-0.052,1.394,0.399,1.584,1.102c0.031,0.116,3.259,11.626,11.863,12.142
			c0.714,0.043,1.298,0.584,1.396,1.292c0.098,0.708-0.318,1.388-0.994,1.622c-0.121,0.042-12.119,4.311-12.312,12.819
			c-0.018,0.767-0.61,1.396-1.375,1.46C226.262,55.077,226.22,55.079,226.178,55.079z M218.438,39.35
			c3.878,1.969,6.23,5.746,7.586,8.876c2.026-4.021,5.941-6.787,8.949-8.427c-4.134-1.842-6.783-5.651-8.334-8.723
			C224.846,35.437,221.368,37.945,218.438,39.35z"/>
		<path class="st14" d="M204.579,43.112c0,0,2.411,8.954,9.352,9.369c0,0-9.266,3.201-9.422,10.045c0,0-1.824-9.6-9.142-9.944
			C195.367,52.582,203.891,51.291,204.579,43.112z"/>
		<path class="st3" d="M204.508,64.026c-0.714,0-1.337-0.508-1.473-1.22c-0.016-0.082-1.703-8.442-7.738-8.726
			c-0.771-0.036-1.388-0.65-1.428-1.421c-0.04-0.77,0.511-1.444,1.273-1.561c0.296-0.047,7.363-1.242,7.941-8.113
			c0.061-0.726,0.636-1.303,1.361-1.368c0.714-0.054,1.392,0.399,1.581,1.102l0,0c0.022,0.079,2.229,7.92,7.995,8.266
			c0.714,0.043,1.299,0.584,1.396,1.293c0.097,0.709-0.32,1.389-0.997,1.622c-0.08,0.028-8.282,2.952-8.412,8.661
			c-0.018,0.768-0.611,1.397-1.377,1.461C204.591,64.024,204.549,64.026,204.508,64.026z M199.989,52.499
			c2.107,1.332,3.523,3.394,4.447,5.279c1.376-2.231,3.515-3.872,5.365-4.972c-2.287-1.269-3.885-3.35-4.942-5.225
			C203.686,49.869,201.845,51.458,199.989,52.499z"/>
		<path class="st14" d="M204.579,16.454c0,0,2.411,8.954,9.352,9.37c0,0-9.266,3.201-9.422,10.045c0,0-1.824-9.6-9.142-9.944
			C195.367,25.925,203.891,24.633,204.579,16.454z"/>
		<path class="st3" d="M204.508,37.369c-0.714,0-1.337-0.508-1.473-1.22c-0.016-0.082-1.703-8.442-7.738-8.726
			c-0.771-0.036-1.388-0.65-1.428-1.421c-0.04-0.77,0.511-1.444,1.273-1.561c0.296-0.047,7.363-1.243,7.941-8.113
			c0.061-0.726,0.636-1.303,1.361-1.368c0.714-0.054,1.392,0.399,1.581,1.102l0,0c0.022,0.079,2.229,7.92,7.995,8.265
			c0.714,0.042,1.299,0.584,1.396,1.293c0.097,0.709-0.32,1.389-0.996,1.622c-0.081,0.028-8.283,2.953-8.413,8.662
			c-0.018,0.768-0.611,1.397-1.377,1.461C204.591,37.367,204.549,37.369,204.508,37.369z M199.989,25.842
			c2.107,1.332,3.522,3.394,4.447,5.279c1.376-2.232,3.515-3.872,5.364-4.973c-2.286-1.269-3.884-3.35-4.941-5.224
			C203.686,23.212,201.845,24.8,199.989,25.842z"/>
		<polygon class="st4" points="176.109,239.64 169.68,226.716 155,228.008 180.643,181.473 201.752,193.105 		"/>
		<path class="st3" d="M176.109,241.141c-0.011,0-0.021,0-0.031,0c-0.558-0.012-1.063-0.332-1.311-0.832l-5.975-12.009l-13.66,1.203
			c-0.546,0.051-1.086-0.21-1.389-0.675c-0.303-0.465-0.324-1.058-0.057-1.543l25.643-46.536c0.191-0.349,0.515-0.606,0.896-0.717
			c0.384-0.11,0.793-0.065,1.141,0.127l21.109,11.632c0.726,0.399,0.99,1.311,0.59,2.037l-25.643,46.536
			C177.159,240.844,176.655,241.141,176.109,241.141z M169.681,225.216c0.564,0,1.087,0.319,1.342,0.832l5.155,10.361l23.536-42.715
			l-18.481-10.184l-23.561,42.757l11.876-1.046C169.592,225.218,169.637,225.216,169.681,225.216z"/>
		<polygon class="st4" points="217.891,239.64 224.32,226.716 239,228.008 213.357,181.473 192.248,193.105 		"/>
		<path class="st3" d="M217.891,241.141c-0.546,0-1.05-0.297-1.313-0.776l-25.643-46.536c-0.4-0.726-0.136-1.638,0.59-2.037
			l21.109-11.632c0.348-0.192,0.758-0.238,1.141-0.127c0.382,0.11,0.705,0.368,0.896,0.717l25.643,46.536
			c0.268,0.485,0.246,1.078-0.057,1.543c-0.303,0.465-0.841,0.725-1.389,0.675l-13.66-1.203l-5.975,12.009
			c-0.248,0.5-0.754,0.82-1.311,0.832C217.911,241.141,217.901,241.141,217.891,241.141z M194.286,193.694l23.536,42.715
			l5.155-10.361c0.275-0.553,0.854-0.883,1.475-0.826l11.876,1.046l-23.561-42.757L194.286,193.694z"/>
		<path class="st9" d="M232.342,177.162l-0.018,0.015c-2.622,2.107-3.746,5.567-2.863,8.813l0.005,0.019
			c1.419,5.217-2.354,10.408-7.755,10.667l-0.015,0.001c-3.364,0.161-6.312,2.304-7.504,5.454l0,0
			c-1.915,5.062-8.026,7.047-12.55,4.077l-0.001-0.001c-2.817-1.849-6.463-1.849-9.281,0l-0.001,0.001
			c-4.524,2.969-10.635,0.984-12.55-4.077l0,0c-1.192-3.15-4.14-5.293-7.504-5.454l-0.015-0.001
			c-5.401-0.259-9.174-5.45-7.755-10.667l0.005-0.019c0.883-3.246-0.241-6.706-2.863-8.813l-0.018-0.014
			c-4.213-3.385-4.214-9.8,0-13.185l0.018-0.015c2.622-2.107,3.746-5.567,2.863-8.813l-0.005-0.019
			c-1.419-5.217,2.354-10.408,7.755-10.667l0.015-0.001c3.364-0.161,6.312-2.304,7.504-5.454l0,0
			c1.915-5.062,8.026-7.047,12.55-4.077l0.001,0.001c2.817,1.849,6.463,1.849,9.281,0l0.001-0.001
			c4.524-2.969,10.635-0.984,12.55,4.077l0,0c1.192,3.15,4.14,5.293,7.504,5.454l0.015,0.001c5.401,0.259,9.174,5.45,7.755,10.667
			l-0.005,0.019c-0.883,3.246,0.241,6.706,2.863,8.813l0.018,0.015C236.555,167.362,236.555,173.777,232.342,177.162z"/>
		<path class="st3" d="M206.27,209.1c-1.913,0-3.803-0.556-5.451-1.638c-2.319-1.52-5.316-1.524-7.636-0.001
			c-2.539,1.667-5.652,2.085-8.541,1.146c-2.889-0.939-5.161-3.105-6.236-5.945c-0.98-2.593-3.404-4.354-6.173-4.488
			c-3.046-0.145-5.808-1.637-7.591-4.091c-1.784-2.454-2.352-5.541-1.555-8.469c0.732-2.689-0.192-5.535-2.35-7.269
			c-2.383-1.914-3.739-4.743-3.739-7.776c0-3.032,1.357-5.861,3.721-7.762c2.176-1.748,3.101-4.594,2.374-7.265
			c-0.802-2.946-0.235-6.033,1.549-8.487s4.545-3.945,7.575-4.09c2.785-0.134,5.208-1.895,6.189-4.487
			c1.075-2.841,3.348-5.008,6.236-5.946c2.887-0.939,6-0.522,8.54,1.145c2.317,1.521,5.314,1.522,7.636,0.001
			c2.54-1.666,5.652-2.084,8.541-1.146c2.889,0.939,5.161,3.105,6.236,5.945c0.982,2.594,3.404,4.355,6.172,4.487
			c3.046,0.146,5.808,1.637,7.592,4.091s2.352,5.541,1.555,8.469c-0.732,2.689,0.192,5.535,2.35,7.27
			c2.383,1.914,3.739,4.743,3.739,7.775c0,3.033-1.357,5.862-3.721,7.763c-0.003,0.002-0.007,0.005-0.01,0.008l-0.019,0.015
			c-2.147,1.725-3.072,4.57-2.346,7.241c0.802,2.947,0.235,6.034-1.549,8.488s-4.545,3.945-7.575,4.09
			c-2.785,0.134-5.208,1.895-6.189,4.487c-1.075,2.841-3.348,5.008-6.236,5.946C208.345,208.936,207.304,209.1,206.27,209.1z
			 M187.727,135.042c-0.723,0-1.45,0.113-2.158,0.343c-2.018,0.656-3.607,2.17-4.357,4.155c-1.403,3.711-4.872,6.232-8.836,6.421
			c-2.133,0.103-4.062,1.145-5.308,2.859c-1.247,1.715-1.643,3.871-1.086,5.917c1.045,3.841-0.278,7.914-3.366,10.394
			c-1.671,1.343-2.618,3.319-2.618,5.438c0,2.12,0.947,4.097,2.6,5.423c3.106,2.496,4.43,6.568,3.39,10.391
			c-0.562,2.064-0.166,4.222,1.08,5.937c1.247,1.715,3.176,2.756,5.294,2.858c3.978,0.19,7.445,2.712,8.851,6.422
			c0.751,1.985,2.339,3.499,4.357,4.155c2.018,0.653,4.192,0.363,5.967-0.801c3.319-2.178,7.607-2.18,10.929-0.001
			c1.773,1.164,3.947,1.459,5.968,0.801c2.018-0.655,3.605-2.169,4.357-4.154c1.403-3.711,4.872-6.231,8.836-6.421
			c2.133-0.102,4.062-1.145,5.308-2.859c1.247-1.715,1.643-3.871,1.086-5.917c-1.045-3.842,0.278-7.914,3.366-10.395
			c0,0,0.018-0.015,0.018-0.016c1.652-1.326,2.6-3.303,2.6-5.423c0-2.119-0.947-4.096-2.6-5.422
			c-3.106-2.497-4.43-6.569-3.39-10.392c0.562-2.064,0.166-4.222-1.081-5.937c-1.246-1.714-3.176-2.756-5.293-2.857
			c-3.978-0.19-7.445-2.711-8.851-6.422c-0.75-1.985-2.339-3.499-4.357-4.155c-2.018-0.655-4.193-0.364-5.967,0.8
			c-3.32,2.18-7.61,2.181-10.929,0.001C190.385,135.43,189.064,135.042,187.727,135.042z"/>
		<path class="st3" d="M206.27,209.1c-1.913,0-3.803-0.556-5.451-1.638c-2.319-1.52-5.316-1.524-7.636-0.001
			c-2.539,1.667-5.652,2.085-8.541,1.146c-2.889-0.939-5.161-3.105-6.236-5.945c-0.98-2.593-3.404-4.354-6.173-4.488
			c-3.046-0.145-5.808-1.637-7.591-4.091c-1.784-2.454-2.352-5.541-1.555-8.469c0.732-2.689-0.192-5.535-2.35-7.269
			c-2.383-1.914-3.739-4.743-3.739-7.776c0-3.032,1.357-5.861,3.721-7.762c2.176-1.748,3.101-4.594,2.374-7.265
			c-0.802-2.946-0.235-6.033,1.549-8.487s4.545-3.945,7.575-4.09c2.785-0.134,5.208-1.895,6.189-4.487
			c1.075-2.841,3.348-5.008,6.236-5.946c2.887-0.939,6-0.522,8.54,1.145c2.317,1.521,5.314,1.522,7.636,0.001
			c2.54-1.666,5.652-2.084,8.541-1.146c2.889,0.939,5.161,3.105,6.236,5.945c0.982,2.594,3.404,4.355,6.172,4.487
			c3.046,0.146,5.808,1.637,7.592,4.091s2.352,5.541,1.555,8.469c-0.732,2.689,0.192,5.535,2.35,7.27
			c2.383,1.914,3.739,4.743,3.739,7.775c0,3.033-1.357,5.862-3.721,7.763c-0.003,0.002-0.007,0.005-0.01,0.008l-0.019,0.015
			c-2.147,1.725-3.072,4.57-2.346,7.241c0.802,2.947,0.235,6.034-1.549,8.488s-4.545,3.945-7.575,4.09
			c-2.785,0.134-5.208,1.895-6.189,4.487c-1.075,2.841-3.348,5.008-6.236,5.946C208.345,208.936,207.304,209.1,206.27,209.1z
			 M187.727,135.042c-0.723,0-1.45,0.113-2.158,0.343c-2.018,0.656-3.607,2.17-4.357,4.155c-1.403,3.711-4.872,6.232-8.836,6.421
			c-2.133,0.103-4.062,1.145-5.308,2.859c-1.247,1.715-1.643,3.871-1.086,5.917c1.045,3.841-0.278,7.914-3.366,10.394
			c-1.671,1.343-2.618,3.319-2.618,5.438c0,2.12,0.947,4.097,2.6,5.423c3.106,2.496,4.43,6.568,3.39,10.391
			c-0.562,2.064-0.166,4.222,1.08,5.937c1.247,1.715,3.176,2.756,5.294,2.858c3.978,0.19,7.445,2.712,8.851,6.422
			c0.751,1.985,2.339,3.499,4.357,4.155c2.018,0.653,4.192,0.363,5.967-0.801c3.319-2.178,7.607-2.18,10.929-0.001
			c1.773,1.164,3.947,1.459,5.968,0.801c2.018-0.655,3.605-2.169,4.357-4.154c1.403-3.711,4.872-6.231,8.836-6.421
			c2.133-0.102,4.062-1.145,5.308-2.859c1.247-1.715,1.643-3.871,1.086-5.917c-1.045-3.842,0.278-7.914,3.366-10.395
			c0,0,0.018-0.015,0.018-0.016c1.652-1.326,2.6-3.303,2.6-5.423c0-2.119-0.947-4.096-2.6-5.422
			c-3.106-2.497-4.43-6.569-3.39-10.392c0.562-2.064,0.166-4.222-1.081-5.937c-1.246-1.714-3.176-2.756-5.293-2.857
			c-3.978-0.19-7.445-2.711-8.851-6.422c-0.75-1.985-2.339-3.499-4.357-4.155c-2.018-0.655-4.193-0.364-5.967,0.8
			c-3.32,2.18-7.61,2.181-10.929,0.001C190.385,135.43,189.064,135.042,187.727,135.042z"/>
		
			<ellipse transform="matrix(0.1602 -0.9871 0.9871 0.1602 -2.9231 337.7036)" class="st14" cx="197" cy="170.57" rx="25.471" ry="25.471"/>
		<path class="st3" d="M197,197.541c-14.872,0-26.971-12.1-26.971-26.972c0-14.872,12.099-26.971,26.971-26.971
			s26.971,12.099,26.971,26.971C223.971,185.441,211.872,197.541,197,197.541z M197,146.599c-13.218,0-23.971,10.753-23.971,23.971
			c0,13.218,10.753,23.972,23.971,23.972s23.971-10.754,23.971-23.972C220.971,157.352,210.218,146.599,197,146.599z"/>
		<path class="st19" d="M198.305,156.316l3.744,7.587c0.212,0.429,0.622,0.727,1.095,0.796l8.373,1.217
			c1.193,0.173,1.67,1.64,0.806,2.482l-6.059,5.906c-0.343,0.334-0.499,0.816-0.418,1.288l1.43,8.339
			c0.204,1.188-1.044,2.095-2.111,1.534l-7.489-3.937c-0.424-0.223-0.93-0.223-1.354,0l-7.489,3.937
			c-1.067,0.561-2.315-0.345-2.111-1.534l1.43-8.339c0.081-0.472-0.076-0.953-0.419-1.288l-6.059-5.906
			c-0.863-0.842-0.387-2.308,0.806-2.482l8.373-1.217c0.474-0.069,0.883-0.367,1.095-0.796l3.745-7.587
			C196.229,155.235,197.771,155.235,198.305,156.316z"/>
		<path class="st3" d="M205.846,187.134c-0.47,0-0.941-0.113-1.377-0.342l-7.49-3.938l-7.446,3.938
			c-1.005,0.524-2.197,0.439-3.112-0.227c-0.916-0.666-1.366-1.773-1.175-2.89l1.43-8.339l-6.045-5.865
			c-0.811-0.791-1.098-1.952-0.748-3.029c0.35-1.077,1.264-1.848,2.385-2.011l8.373-1.217l3.711-7.562
			c0.5-1.015,1.516-1.646,2.648-1.646c0,0,0,0,0.001,0c1.133,0,2.148,0.631,2.649,1.646l0,0l3.744,7.587l8.34,1.192
			c1.121,0.163,2.035,0.934,2.385,2.011c0.35,1.077,0.063,2.238-0.748,3.029l-6.059,5.905l1.443,8.299
			c0.191,1.116-0.259,2.224-1.175,2.89C207.062,186.942,206.456,187.134,205.846,187.134z M196.958,156.977l-3.662,7.59
			c-0.431,0.873-1.263,1.478-2.227,1.616l-8.371,1.217l6.084,5.828c0.697,0.681,1.014,1.658,0.85,2.616l-1.43,8.339l7.423-3.985
			c0.862-0.451,1.891-0.451,2.749,0l7.49,3.938l-1.496-8.291c-0.164-0.958,0.152-1.936,0.848-2.615l6.061-5.906l-8.348-1.14
			c-0.962-0.139-1.794-0.743-2.226-1.617L196.958,156.977z"/>
		<path class="st9" d="M148.193,106.768v21.278c0,2.989-2.421,5.41-5.41,5.41H95.213c-2.989,0-5.411-2.421-5.411-5.41v-21.278
			l29.195,14.849L148.193,106.768z"/>
		<path class="st3" d="M142.782,134.956H95.213c-3.811,0-6.91-3.1-6.91-6.91v-21.277c0-0.521,0.272-1.006,0.716-1.278
			c0.445-0.273,0.999-0.297,1.464-0.059l28.516,14.503l28.515-14.503c0.465-0.238,1.019-0.215,1.464,0.059
			c0.444,0.273,0.716,0.757,0.716,1.278v21.277C149.692,131.856,146.593,134.956,142.782,134.956z M91.303,109.214v18.832
			c0,2.156,1.754,3.91,3.91,3.91h47.569c2.156,0,3.91-1.754,3.91-3.91v-18.832l-27.015,13.74c-0.426,0.217-0.934,0.217-1.359,0
			L91.303,109.214z"/>
		<polygon class="st9" points="118.998,76.933 75.071,99.275 118.998,121.617 162.924,99.275 		"/>
		<path class="st3" d="M118.998,123.117c-0.233,0-0.467-0.055-0.68-0.163l-43.927-22.343c-0.504-0.256-0.82-0.772-0.82-1.337
			c0-0.564,0.316-1.081,0.82-1.337l43.927-22.342c0.426-0.217,0.934-0.217,1.359,0l43.926,22.342c0.504,0.256,0.82,0.772,0.82,1.337
			c0,0.564-0.316,1.081-0.82,1.337l-43.926,22.343C119.465,123.062,119.231,123.117,118.998,123.117z M78.38,99.274l40.618,20.66
			l40.617-20.66l-40.617-20.659L78.38,99.274z"/>
		<path class="st5" d="M162.924,99.275v27.213c-1.125-1.446-2.646-2.336-4.328-2.336c-1.671,0-3.193,0.889-4.318,2.336v-22.82
			L162.924,99.275z"/>
		<path class="st3" d="M162.924,127.987c-0.454,0-0.895-0.207-1.184-0.579c-0.88-1.133-1.996-1.756-3.144-1.756
			c-1.14,0-2.253,0.624-3.134,1.756c-0.393,0.506-1.064,0.706-1.671,0.498c-0.605-0.208-1.013-0.778-1.013-1.419v-22.82
			c0-0.564,0.317-1.081,0.82-1.337l8.645-4.393c0.464-0.238,1.02-0.216,1.464,0.059c0.445,0.272,0.716,0.757,0.716,1.278v27.213
			c0,0.641-0.407,1.211-1.014,1.419C163.251,127.961,163.087,127.987,162.924,127.987z M158.596,122.652
			c0.985,0,1.94,0.229,2.828,0.668v-21.601l-5.645,2.868v18.732C156.663,122.881,157.615,122.652,158.596,122.652z"/>
		<ellipse class="st5" cx="158.599" cy="132.799" rx="6.33" ry="8.645"/>
		<path class="st3" d="M158.599,142.944c-4.317,0-7.829-4.551-7.829-10.146c0-5.595,3.512-10.146,7.829-10.146
			c4.317,0,7.83,4.551,7.83,10.146C166.429,138.394,162.916,142.944,158.599,142.944z M158.599,125.653
			c-2.617,0-4.829,3.272-4.829,7.146c0,3.873,2.212,7.146,4.829,7.146c2.618,0,4.83-3.272,4.83-7.146
			C163.429,128.926,161.217,125.653,158.599,125.653z"/>
		<path class="st18" d="M175.46,64.832l-15.14-15.15l-0.12-12.79c-0.1-10.45-8.69-18.96-19.15-18.97h15
			c10.46,0.01,19.05,8.52,19.15,18.97L175.46,64.832z"/>
		<path class="st10" d="M183.5,93.113v39.87c0.37-0.17,0.75-0.32,1.14-0.45c2.89-0.94,6-0.52,8.54,1.14
			c1.6,1.05,3.52,1.36,5.32,0.96v-41.52H183.5z"/>
	</g>
</g>
</svg>
